# File created by Blade
# Date/Time:  Tue Sep 28 14:35:47 2010
#---------------------------------------------------------
:version 1.10
:name HOM
:units
  mass 1.0
  length 1.000000
  angle deg
:documentation
     Acclaim Skeleton File
:root
   axis xyz
   order TX TY TZ RX RY RZ
   position 0.000000 0.000000 0.000000
   orientation 0 0 0
:bonedata
   begin
      id 1
      name LeftUpLeg_dum
      direction 1.000000 0.000000 0.000000
      length 3.677894
      axis 0.0 0.0 0.0 xyz
   end
   begin
      id 2
      name RightUpLeg_dum
      direction -1.000000 0.000000 0.000000
      length 3.677894
      axis 0.0 0.0 0.0 xyz
   end
   begin
      id 3
      name Spine_dum
      direction 0.000000 1.000000 0.000000
      length 0.039370
      axis 0.0 0.0 0.0 xyz
   end
   begin
      id 4
      name LeftUpLeg
      direction 0.000000 -1.000000 0.000000
      length 18.389491
      axis 0.0 0.0 0.0 xyz
      dof rx ry rz
   end
   begin
      id 5
      name LeftLeg
      direction 0.000000 -1.000000 0.000000
      length 16.918313
      axis 0.0 0.0 0.0 xyz
      dof rx ry rz
   end
   begin
      id 6
      name LeftFoot
      direction 0.000000 -0.258819 0.965926
      length 6.436326
      axis 15.0 0.0 0.0 xyz
      dof rx ry rz
   end
   begin
      id 7
      name LeftToeBase
      direction 0.000000 0.000000 1.000000
      length 2.952750
      axis 0.0 0.0 0.0 xyz
      dof rx ry rz
   end
   begin
      id 8
      name RightUpLeg
      direction 0.000000 -1.000000 0.000000
      length 18.389491
      axis 0.0 0.0 0.0 xyz
      dof rx ry rz
   end
   begin
      id 9
      name RightLeg
      direction 0.000000 -1.000000 0.000000
      length 16.918313
      axis 0.0 0.0 0.0 xyz
      dof rx ry rz
   end
   begin
      id 10
      name RightFoot
      direction 0.000000 -0.258819 0.965926
      length 6.436326
      axis 15.0 0.0 0.0 xyz
      dof rx ry rz
   end
   begin
      id 11
      name RightToeBase
      direction 0.000000 0.000000 1.000000
      length 2.952750
      axis 0.0 0.0 0.0 xyz
      dof rx ry rz
   end
   begin
      id 12
      name Spine
      direction 0.000000 1.000000 0.000000
      length 9.194745
      axis 0.0 0.0 0.0 xyz
      dof rx ry rz
   end
   begin
      id 13
      name Spine1
      direction 0.000000 1.000000 0.000000
      length 0.000000
      axis 0.0 0.0 0.0 xyz
      dof rx ry rz
   end
   begin
      id 14
      name Spine1_dum1
      direction 0.000000 1.000000 0.000000
      length 9.194745
      axis 0.0 0.0 0.0 xyz
   end
   begin
      id 15
      name Spine1_dum2
      direction 0.000000 1.000000 0.000000
      length 9.194745
      axis 0.0 0.0 0.0 xyz
   end
   begin
      id 16
      name Spine1_dum3
      direction 0.000000 1.000000 0.000000
      length 9.194745
      axis 0.0 0.0 0.0 xyz
   end
   begin
      id 17
      name Neck
      direction 0.000000 1.000000 0.000000
      length 4.229598
      axis 0.0 0.0 0.0 xyz
      dof rx ry rz
   end
   begin
      id 18
      name Head
      direction 0.000000 1.000000 0.000000
      length 4.527550
      axis 0.0 0.0 0.0 xyz
      dof rx ry rz
   end
   begin
      id 19
      name LeftShoulder
      direction 1.000000 -0.000004 0.000000
      length 5.516839
      axis 0.0 0.0 -90.0 xyz
      dof rx ry rz
   end
   begin
      id 20
      name LeftArm
      direction 1.000000 -0.000004 0.000000
      length 11.033679
      axis 0.0 0.0 -90.0 xyz
      dof rx ry rz
   end
   begin
      id 21
      name LeftForeArm
      direction 1.000000 -0.000004 0.000000
      length 10.114232
      axis 0.0 0.0 -90.0 xyz
      dof rx ry rz
   end
   begin
      id 22
      name LeftHand
      direction 0.000000 0.000000 0.000000
      length 0.000000
      axis 0.0 0.0 -90.0 xyz
      dof rx ry rz
   end
   begin
      id 23
      name LeftHand_dum1
      direction 0.000000 0.000000 0.000000
      length 0.000000
      axis 0.0 0.0 -90.0 xyz
   end
   begin
      id 24
      name LeftHand_dum2
      direction 1.000000 -0.000004 0.000000
      length 3.937000
      axis 0.0 0.0 -90.0 xyz
   end
   begin
      id 25
      name LeftHandThumb
      direction 0.000000 0.000000 1.000000
      length 3.937000
      axis 0.0 0.0 -90.0 xyz
      dof rx ry rz
   end
   begin
      id 26
      name RightShoulder
      direction -1.000000 -0.000004 0.000000
      length 5.516839
      axis 0.0 0.0 90.0 xyz
      dof rx ry rz
   end
   begin
      id 27
      name RightArm
      direction -1.000000 -0.000004 0.000000
      length 11.033679
      axis 0.0 0.0 90.0 xyz
      dof rx ry rz
   end
   begin
      id 28
      name RightForeArm
      direction -1.000000 -0.000004 0.000000
      length 10.114232
      axis 0.0 0.0 90.0 xyz
      dof rx ry rz
   end
   begin
      id 29
      name RightHand
      direction 0.000000 0.000000 0.000000
      length 0.000000
      axis 0.0 0.0 90.0 xyz
      dof rx ry rz
   end
   begin
      id 30
      name RightHand_dum1
      direction 0.000000 0.000000 0.000000
      length 0.000000
      axis 0.0 0.0 90.0 xyz
   end
   begin
      id 31
      name RightHand_dum2
      direction -1.000000 -0.000004 0.000000
      length 5.393690
      axis 0.0 0.0 90.0 xyz
   end
   begin
      id 32
      name RightHandThumb
      direction 0.000000 0.000000 1.000000
      length 3.937000
      axis 0.0 0.0 90.0 xyz
      dof rx ry rz
   end
:hierarchy
   begin
      root LeftUpLeg_dum RightUpLeg_dum Spine_dum
      LeftUpLeg_dum LeftUpLeg
      RightUpLeg_dum RightUpLeg
      Spine_dum Spine
      LeftUpLeg LeftLeg
      LeftLeg LeftFoot
      LeftFoot LeftToeBase
      RightUpLeg RightLeg
      RightLeg RightFoot
      RightFoot RightToeBase
      Spine Spine1
      Spine1 Spine1_dum1 Spine1_dum2 Spine1_dum3
      Spine1_dum1 Neck
      Spine1_dum2 LeftShoulder
      Spine1_dum3 RightShoulder
      Neck Head
      LeftShoulder LeftArm
      LeftArm LeftForeArm
      LeftForeArm LeftHand
      LeftHand LeftHand_dum1 LeftHand_dum2
      LeftHand_dum1 LeftHandThumb
      RightShoulder RightArm
      RightArm RightForeArm
      RightForeArm RightHand
      RightHand RightHand_dum1 RightHand_dum2
      RightHand_dum1 RightHandThumb
   end

# File created by Blade
# Date/Time:  Tue Sep 28 14:35:42 2010
# Frame Rate: 200.000 fps
#------------------------------------------------------
:FULLY-SPECIFIED
:DEGREES
923
root  2.543432 36.282920 67.203461 6.257631 8.728119 -4.045646
LeftUpLeg  -1.032742 7.141076 5.592239
LeftLeg  32.746135 -0.000000 0.000000
LeftFoot  -6.553909 9.976620 11.049363
LeftToeBase  -21.672230 0.000000 -0.000000
RightUpLeg  -34.469016 -27.535230 16.508804
RightLeg  14.984870 -0.000000 0.000000
RightFoot  4.211653 3.999432 -17.236100
RightToeBase  -9.473986 0.000000 -0.000000
Spine  -15.265291 -7.002317 2.093358
Spine1  19.874050 -6.440598 10.707563
Neck  13.665011 2.745740 -8.805375
Head  -7.897409 0.905233 1.990614
LeftShoulder  -2.759153 -12.141241 -29.152024
LeftArm  7.671666 33.186270 -29.793543
LeftForeArm  36.374550 -0.000000 0.000000
LeftHand  7.927837 -5.789794 1.246383
LeftHandThumb  0.000000 -0.000000 0.000000
RightShoulder  -0.740933 7.102029 22.757143
RightArm  -6.143419 -48.100003 41.503718
RightForeArm  22.158045 -0.000000 0.000000
RightHand  4.395461 6.498015 4.680255
RightHandThumb  0.000000 -0.000000 0.000000
924
root  2.510850 36.264264 67.436404 6.191134 8.730733 -4.107789
LeftUpLeg  -1.051777 6.822096 5.728440
LeftLeg  33.381219 -0.000000 0.000000
LeftFoot  -5.991460 10.043981 10.790672
LeftToeBase  -22.063166 0.000000 -0.000000
RightUpLeg  -34.663669 -27.548308 16.550794
RightLeg  15.951838 -0.000000 0.000000
RightFoot  4.584160 3.686321 -17.915643
RightToeBase  -9.453585 0.000000 -0.000000
Spine  -15.292227 -6.969780 2.230306
Spine1  19.852667 -6.460641 10.747269
Neck  13.545256 2.738689 -8.783089
Head  -7.491149 0.898421 1.787497
LeftShoulder  -2.831753 -12.050721 -29.313294
LeftArm  7.445447 33.494710 -29.829011
LeftForeArm  36.359004 -0.000000 0.000000
LeftHand  7.820508 -5.857557 1.452238
LeftHandThumb  0.000000 -0.000000 0.000000
RightShoulder  -0.772241 7.019124 22.729411
RightArm  -6.154345 -48.001678 41.526493
RightForeArm  22.105488 -0.000000 0.000000
RightHand  4.391464 6.829658 4.575521
RightHandThumb  0.000000 -0.000000 0.000000
925
root  2.484670 36.253580 67.670019 6.107492 8.709956 -4.238130
LeftUpLeg  -1.055103 6.450014 5.869431
LeftLeg  33.983186 -0.000000 0.000000
LeftFoot  -5.251063 10.398173 10.790604
LeftToeBase  -22.863213 0.000000 -0.000000
RightUpLeg  -34.948390 -27.673417 16.697633
RightLeg  17.196080 -0.000000 0.000000
RightFoot  4.507095 3.384192 -18.623041
RightToeBase  -9.729842 0.000000 -0.000000
Spine  -15.307487 -6.922945 2.442043
Spine1  19.847196 -6.497409 10.817066
Neck  13.553808 2.781862 -8.874568
Head  -7.344078 0.865388 1.735979
LeftShoulder  -2.890642 -12.036184 -29.535281
LeftArm  7.314909 33.483761 -29.970602
LeftForeArm  35.907554 -0.000000 0.000000
LeftHand  8.017228 -5.513070 1.012138
LeftHandThumb  0.000000 -0.000000 0.000000
RightShoulder  -0.788062 7.017006 22.705583
RightArm  -6.165154 -47.834425 41.512928
RightForeArm  21.991754 -0.000000 0.000000
RightHand  4.464132 6.871405 4.720291
RightHandThumb  0.000000 -0.000000 0.000000
926
root  2.444169 36.249695 67.929471 5.902954 8.586879 -5.247526
LeftUpLeg  -1.034536 6.387544 6.925367
LeftLeg  34.768517 -0.000000 0.000000
LeftFoot  -4.814813 10.859868 11.184830
LeftToeBase  -23.711595 0.000000 -0.000000
RightUpLeg  -34.814008 -27.622273 17.646218
RightLeg  17.823394 -0.000000 0.000000
RightFoot  4.619867 3.300342 -18.890042
RightToeBase  -9.087319 0.000000 -0.000000
Spine  -15.486878 -6.649988 3.489548
Spine1  19.972250 -6.680862 10.861528
Neck  13.595937 3.057324 -9.456651
Head  -7.248751 0.803926 2.294865
LeftShoulder  -2.998467 -11.994217 -29.922444
LeftArm  7.188113 33.739420 -29.738321
LeftForeArm  35.706678 -0.000000 0.000000
LeftHand  7.931485 -5.241391 0.964480
LeftHandThumb  0.000000 -0.000000 0.000000
RightShoulder  -0.641802 7.195320 22.438753
RightArm  -6.532554 -47.788592 42.158148
RightForeArm  21.719947 -0.000000 0.000000
RightHand  4.312863 6.724794 4.440036
RightHandThumb  0.000000 -0.000000 0.000000
927
root  2.412364 36.250983 68.151095 5.838389 8.556029 -5.307375
LeftUpLeg  -1.158405 5.701128 6.921822
LeftLeg  35.520696 -0.000000 0.000000
LeftFoot  -4.091462 11.263077 10.630987
LeftToeBase  -23.351549 0.000000 -0.000000
RightUpLeg  -34.784254 -27.071319 17.321426
RightLeg  18.796654 -0.000000 0.000000
RightFoot  4.653572 2.432248 -18.708549
RightToeBase  -9.154672 0.000000 -0.000000
Spine  -15.488483 -6.641511 3.588652
Spine1  19.984700 -6.711547 10.927855
Neck  13.645377 2.799250 -9.270083
Head  -7.077462 1.057541 1.762806
LeftShoulder  -3.034794 -11.773358 -30.038862
LeftArm  7.112832 33.793225 -29.895925
LeftForeArm  35.294231 -0.000000 0.000000
LeftHand  8.208304 -5.804307 1.072072
LeftHandThumb  0.000000 -0.000000 0.000000
RightShoulder  -0.582479 7.359976 22.546829
RightArm  -6.618141 -47.968443 42.082896
RightForeArm  21.495706 -0.000000 0.000000
RightHand  4.558901 6.488984 4.516346
RightHandThumb  0.000000 -0.000000 0.000000
928
root  2.392120 36.251562 68.382067 5.762594 8.482171 -5.416821
LeftUpLeg  -1.174779 5.490671 7.034388
LeftLeg  36.065479 -0.000000 0.000000
LeftFoot  -3.181917 11.459405 10.550068
LeftToeBase  -25.029202 0.000000 -0.000000
RightUpLeg  -35.045528 -26.973326 17.303725
RightLeg  20.180717 -0.000000 0.000000
RightFoot  4.566495 2.061625 -18.713932
RightToeBase  -9.392990 0.000000 -0.000000
Spine  -15.521860 -6.571402 3.771471
Spine1  20.034395 -6.721132 11.012762
Neck  13.657575 2.767888 -9.254352
Head  -7.010538 1.076436 1.554674
LeftShoulder  -3.117537 -11.621936 -30.227534
LeftArm  6.992410 33.785729 -30.116990
LeftForeArm  35.014787 -0.000000 0.000000
LeftHand  8.112423 -5.747443 1.150058
LeftHandThumb  0.000000 -0.000000 0.000000
RightShoulder  -0.573397 7.110747 22.585411
RightArm  -6.362526 -47.544666 41.730514
RightForeArm  21.489062 -0.000000 0.000000
RightHand  4.415747 7.122082 4.747017
RightHandThumb  0.000000 -0.000000 0.000000
